<?xml version="1.0" standalone="no"?>
<!DOCTYPE svg PUBLIC "-//W3C//DTD SVG 20010904//EN"
 "http://www.w3.org/TR/2001/REC-SVG-20010904/DTD/svg10.dtd">
<svg version="1.0" xmlns="http://www.w3.org/2000/svg"
 width="700.000000pt" height="700.000000pt" viewBox="0 0 700.000000 700.000000"
 preserveAspectRatio="xMidYMid meet">
<metadata>
Created by potrace 1.11, written by Peter Selinger 2001-2013
</metadata>
<g transform="translate(0.000000,700.000000) scale(0.100000,-0.100000)"
fill="#000000" stroke="none">
<path d="M4705 6884 c-385 -172 -561 -272 -751 -426 -148 -120 -215 -194 -320
-360 -60 -95 -239 -440 -276 -533 -9 -22 -38 -87 -66 -145 -27 -58 -106 -232
-177 -387 -70 -155 -133 -290 -141 -300 -12 -16 -13 -13 -9 22 2 22 6 55 9 73
3 17 8 44 11 60 41 243 88 411 253 905 21 62 17 73 -26 62 -51 -12 -347 -163
-442 -226 -266 -174 -577 -449 -756 -669 -189 -234 -408 -594 -529 -874 -69
-160 -163 -434 -190 -556 -1 -8 -8 -33 -14 -56 -6 -22 -22 -94 -36 -159 -14
-66 -27 -127 -29 -135 -3 -15 -17 -102 -21 -130 -2 -15 -11 -73 -22 -135 -7
-46 -10 -66 -17 -115 -3 -25 -8 -54 -10 -65 -2 -11 -7 -48 -11 -83 -14 -122
-23 -70 -20 110 2 101 6 208 9 238 3 30 8 80 11 110 11 110 35 270 56 362 6
25 12 57 14 70 4 31 37 188 84 393 21 94 37 172 35 174 -7 8 -109 -96 -192
-194 -101 -120 -206 -281 -286 -440 -92 -185 -135 -305 -171 -485 -1 -8 -6
-46 -10 -85 -4 -38 -9 -83 -11 -100 -8 -58 -5 -281 5 -335 5 -32 5 -59 0 -64
-5 -6 -42 6 -94 29 -47 21 -88 35 -92 32 -3 -4 -1 -19 5 -34 6 -15 29 -97 52
-180 22 -84 43 -160 47 -169 5 -14 0 -15 -43 -9 -27 4 -66 9 -86 11 -21 2 -66
8 -100 13 -79 11 -108 12 -108 3 0 -4 37 -56 82 -117 93 -126 163 -232 249
-377 l60 -102 -87 -200 c-47 -111 -97 -223 -109 -251 -41 -92 -205 -508 -256
-650 -45 -127 -97 -297 -104 -344 -6 -39 -3 -44 25 -43 18 0 128 14 140 17 18
5 90 17 106 18 6 0 46 104 88 231 84 251 140 410 155 441 5 11 34 83 64 160
64 162 155 371 234 535 84 173 174 354 183 365 4 6 29 51 54 100 26 50 58 108
72 130 13 22 30 51 37 65 7 14 29 53 50 86 20 34 37 65 37 68 0 4 5 12 10 19
6 7 62 93 124 192 314 501 702 1005 1105 1440 101 109 424 429 536 532 120
110 381 334 442 379 21 16 40 31 43 34 15 16 201 157 305 231 350 250 601 401
970 584 366 181 704 309 1055 400 180 47 289 61 530 71 85 3 172 7 192 8 61 5
34 -10 -59 -33 -74 -18 -461 -129 -613 -175 -293 -90 -753 -281 -1065 -441
-769 -396 -1441 -920 -2140 -1670 -66 -71 -133 -143 -150 -160 -16 -18 -47
-53 -68 -78 -21 -26 -43 -52 -50 -59 -7 -7 -39 -45 -72 -83 -33 -39 -62 -72
-65 -75 -4 -3 -37 -43 -74 -90 -38 -47 -76 -94 -85 -106 -15 -17 -255 -327
-279 -359 -188 -253 -407 -604 -582 -930 -101 -189 -191 -377 -188 -392 2 -11
58 -32 183 -68 99 -29 227 -69 284 -89 58 -20 106 -36 108 -36 2 0 -16 17 -39
38 -24 20 -62 55 -86 77 -24 22 -48 41 -53 43 -37 14 44 17 432 19 242 1 443
3 445 6 2 2 -74 34 -169 72 -94 38 -220 93 -279 122 -98 49 -238 143 -289 194
-20 20 -21 22 -4 32 10 5 99 11 199 13 170 2 336 10 416 20 106 12 142 17 215
29 74 13 161 29 210 39 11 2 55 14 98 26 43 12 90 24 105 26 58 11 395 129
547 191 177 74 500 232 585 287 30 20 58 36 62 36 4 0 12 9 18 19 9 18 4 20
-58 30 -76 12 -137 20 -201 27 -66 7 -282 51 -316 64 l-30 11 30 14 c17 8 147
62 290 120 143 59 305 130 360 158 139 72 316 191 510 342 17 13 84 64 150
114 66 50 129 98 140 107 11 9 112 81 225 161 333 237 610 451 610 472 0 4
-28 2 -62 -5 -80 -17 -284 -55 -321 -60 -15 -2 -47 -6 -70 -10 -47 -7 -66 -9
-152 -18 -33 -4 -73 -9 -90 -11 -16 -2 -64 -6 -105 -10 -41 -3 -102 -8 -135
-11 -111 -10 -559 -12 -625 -3 -183 25 -351 64 -464 107 -52 20 -64 28 -50 33
11 4 177 8 369 8 492 2 770 10 847 25 7 2 36 6 63 10 28 4 66 12 85 16 19 5
53 11 75 15 122 18 464 125 502 157 7 6 13 8 13 5 0 -11 254 124 349 186 178
116 356 279 531 487 30 36 57 67 60 70 24 21 106 141 133 192 54 102 104 257
124 383 10 66 10 294 -1 370 -10 70 -39 171 -69 235 -77 166 -255 312 -502
410 -85 34 -273 97 -309 104 -11 2 -39 9 -61 15 -158 42 -369 46 -558 10 -29
-5 -65 -12 -82 -15 -66 -12 -179 -56 -245 -97 -104 -63 -187 -147 -385 -387
-190 -230 -190 -230 -52 41 69 136 135 263 147 284 66 117 132 255 122 254 -4
0 -101 -43 -217 -95z m-3575 -4318 c0 -3 -4 -8 -10 -11 -5 -3 -10 -1 -10 4 0
6 5 11 10 11 6 0 10 -2 10 -4z"/>
</g>
</svg>
